<?xml version="1.0" encoding="UTF-8"?><svg id="Layer_2" xmlns="http://www.w3.org/2000/svg" viewBox="0 0 600 600"><rect x="280.76" y="499.03" width="38.94" height="38.94" style="fill:#fff;"/><rect x="354.46" y="499.03" width="38.94" height="38.94" style="fill:#fff;"/><rect x="207.05" y="499.03" width="38.94" height="38.94" style="fill:#fff;"/><path d="m165.73,596.17c-15.84,0-28.73-12.89-28.73-28.73V33.57c0-15.84,12.89-28.73,28.73-28.73h266c15.84,0,28.73,12.89,28.73,28.73v533.86c0,15.84-12.89,28.73-28.73,28.73H165.73ZM177.17,29.94c-7.74,0-14.04,5.34-14.04,11.9v514.52c0,6.56,6.3,11.89,14.04,11.89h244.16c7.74,0,14.04-5.33,14.04-11.89V41.84c0-6.56-6.3-11.9-14.04-11.9h-75.53c-4.74,0-8.75,6.48-8.75,10.54v.11l-1.05,11.33v.09c-3.16,19-15.54,29.76-34.87,30.29h-2.15c-19.75-.18-31.49-15.46-32.89-30.46l-1.04-11.24v-.11c0-4.51-4.32-10.54-8.73-10.54h-79.14Zm123.11-2.07c-10.05,0-18.22,8.17-18.22,18.22s8.17,18.22,18.22,18.22,18.22-8.17,18.22-18.22-8.17-18.22-18.22-18.22Z" style="fill:#fff;"/><path d="m431.73,7.31c14.51,0,26.27,11.76,26.27,26.27v533.86c0,14.51-11.76,26.27-26.27,26.27H165.73c-14.51,0-26.27-11.76-26.27-26.27V33.57c0-14.51,11.76-26.27,26.27-26.27h266m-131.45,59.47c11.42,0,20.68-9.26,20.68-20.68s-9.26-20.68-20.68-20.68-20.68,9.26-20.68,20.68,9.26,20.68,20.68,20.68m-1.3,13.06c-18.47-.17-29.14-14.34-30.44-28.22l-1.03-11.13c0-5.47-5.02-13.01-11.2-13.01h-79.14c-9.11,0-16.51,6.43-16.51,14.37v514.52c0,7.93,7.39,14.35,16.51,14.35h244.16c9.11,0,16.51-6.42,16.51-14.35V41.84c0-7.93-7.39-14.37-16.51-14.37h-75.53c-6.19,0-11.21,7.54-11.21,13.01l-1.03,11.13c-2.68,16.19-12.78,27.69-32.49,28.22h-2.08M431.73,2.37H165.73c-17.2,0-31.2,14-31.2,31.2v533.86c0,17.2,14,31.2,31.2,31.2h266c17.2,0,31.2-14,31.2-31.2V33.57c0-17.2-14-31.2-31.2-31.2h0Zm-131.45,59.47c-8.69,0-15.75-7.07-15.75-15.75s7.07-15.75,15.75-15.75,15.75,7.07,15.75,15.75-7.07,15.75-15.75,15.75h0Zm-1.33,22.92h2.24c10.67-.29,19.37-3.51,25.87-9.57,5.96-5.55,9.78-13.22,11.36-22.78l.03-.17.02-.17,1.03-11.13.02-.23v-.23c0-3.26,3.31-8.08,6.28-8.08h75.53c6.38,0,11.58,4.23,11.58,9.43v514.52c0,5.2-5.19,9.42-11.58,9.42h-244.16c-6.38,0-11.58-4.23-11.58-9.42V41.84c0-5.2,5.19-9.43,11.58-9.43h79.14c2.97,0,6.27,4.82,6.27,8.08v.23l.02.23,1.03,11.13c1.51,16.1,14.11,32.5,35.3,32.7h.02Z" style="fill:#fff;"/></svg>