<?xml version="1.0" encoding="UTF-8"?><svg id="Layer_2" xmlns="http://www.w3.org/2000/svg" viewBox="0 0 600 600"><path d="m308.94,406.03h-84.93c-16.84,0-30.5-13.65-30.5-30.5v-150.56c0-16.84,13.65-30.5,30.5-30.5h150.56c16.84,0,30.5,13.65,30.5,30.5v150.56" style="fill:none; stroke:#fff; stroke-miterlimit:10; stroke-width:35px;"/><path d="m405.93,513.1H148.37c-33.89,0-61.37-27.48-61.37-61.37V148.77c0-33.89,27.48-61.37,61.37-61.37h302.95c33.89,0,61.37,27.48,61.37,61.37v207.39" style="fill:none; stroke:#fff; stroke-miterlimit:10; stroke-width:35px;"/><path d="m513,341.54h0c.32,57.47-26.74,64.93-54.87,65.13h-53.06s0-28.09,0-28.09v-3.04" style="fill:none; stroke:#fff; stroke-miterlimit:10; stroke-width:35px;"/></svg>